<svg width="209" height="30" viewBox="0 0 209 30" fill="none" xmlns="http://www.w3.org/2000/svg">
<path fill-rule="evenodd" clip-rule="evenodd" d="M8.07122 0H27.7731C29.153 0 29.9196 1.34664 29.5363 2.99252L24.7067 26.8579C24.3234 28.5038 22.9435 29.8504 21.5636 29.8504H1.86167C0.481774 29.8504 -0.284838 28.5038 0.0984681 26.8579L4.92812 2.99252C5.31142 1.34664 6.69132 0 8.07122 0Z" fill="#FF7400"/>
<path d="M41.5721 25.1366C42.722 25.1366 43.7952 24.8373 44.7152 24.3137C45.6351 23.7151 46.325 22.967 46.8617 21.9944C47.3983 21.0219 47.6283 19.8249 47.6283 18.553C47.6283 17.2064 47.245 16.0842 46.4017 15.2613C45.5584 14.4383 44.4085 14.0643 42.952 14.0643C41.802 14.0643 40.7288 14.3635 39.8089 14.8872C38.8889 15.4857 38.199 16.2338 37.6623 17.2064C37.1257 18.179 36.8957 19.376 36.8957 20.6478C36.8957 21.9944 37.279 23.1166 38.1223 23.9396C38.8889 24.6877 40.0388 25.1366 41.5721 25.1366ZM44.7152 9.1266C46.325 9.1266 47.7816 9.50067 49.1615 10.2488C50.5414 10.9969 51.6147 12.0443 52.4579 13.3909C53.3012 14.7376 53.6845 16.3835 53.6845 18.2538C53.6845 20.4982 53.1479 22.5181 52.1513 24.3137C51.1547 26.1092 49.7748 27.5306 48.0116 28.5032C46.2484 29.5506 44.3319 29.9994 42.1853 29.9994C40.5755 29.9994 39.1956 29.7002 37.969 29.1765C36.8191 28.6528 35.8991 27.8299 35.2092 26.7077L34.5959 29.7002H28.923L34.5959 1.79492H40.5755L38.6589 11.2214C40.4221 9.79992 42.4153 9.1266 44.7152 9.1266Z" fill="white"/>
<path d="M59.6641 1.7207H65.6437L59.9708 29.626H53.9912L59.6641 1.7207Z" fill="white"/>
<path d="M75.1497 25.1369C76.2996 25.1369 77.3728 24.8377 78.2928 24.314C79.2127 23.7155 79.9027 22.9674 80.4393 21.9948C80.9759 21.0222 81.2059 19.8252 81.2059 18.5534C81.2059 17.2068 80.8226 16.0846 79.9793 15.2616C79.1361 14.4387 77.9861 14.0646 76.5296 14.0646C75.3797 14.0646 74.3064 14.3639 73.3865 14.8876C72.4665 15.4861 71.7766 16.2342 71.24 17.2068C70.7033 18.1793 70.4733 19.3763 70.4733 20.6482C70.4733 21.9948 70.8566 23.117 71.6999 23.9399C72.5432 24.6881 73.6931 25.1369 75.1497 25.1369ZM89.0253 9.42621L84.8856 29.7005H79.2127L79.596 27.6806C77.9095 29.1769 75.763 29.9998 73.2331 29.9998C71.6233 29.9998 70.1667 29.6257 68.7868 28.8776C67.4069 28.1295 66.3336 27.0821 65.567 25.7355C64.8004 24.3888 64.3405 22.7429 64.3405 20.8726C64.3405 18.6282 64.8771 16.6083 65.8737 14.8127C66.8703 13.0172 68.2502 11.5958 70.0134 10.6232C71.7766 9.57583 73.6931 9.12695 75.763 9.12695C78.9061 9.12695 81.2059 10.1743 82.5091 12.1943L83.0458 9.42621H89.0253V9.42621Z" fill="white"/>
<path d="M108.957 12.942L96.2314 25.1365H106.811L105.891 29.6253H87.4921L88.182 26.1091L100.984 13.9146H91.0185L91.9384 9.42578H109.647L108.957 12.942Z" fill="white"/>
<path d="M120.303 13.5421C118.923 13.5421 117.697 13.9162 116.7 14.6643C115.703 15.4124 115.014 16.4598 114.63 17.7316H124.903C124.903 16.4598 124.519 15.4124 123.676 14.6643C122.833 13.9162 121.683 13.5421 120.303 13.5421ZM130.346 18.0309C130.346 18.9287 130.269 19.976 130.039 21.0982H114.247C114.477 23.8663 116.24 25.213 119.613 25.213C120.686 25.213 121.683 25.0633 122.603 24.6893C123.6 24.39 124.366 23.8663 125.133 23.2678L127.663 27.1581C126.513 28.0558 125.209 28.7292 123.676 29.178C122.22 29.6269 120.61 29.8514 119 29.8514C116.853 29.8514 115.014 29.4773 113.404 28.7292C111.794 27.981 110.567 26.9337 109.724 25.5122C108.881 24.1656 108.421 22.5197 108.421 20.7242C108.421 18.4798 108.957 16.4598 109.954 14.6643C111.027 12.8688 112.407 11.4473 114.247 10.4748C116.087 9.42739 118.157 8.97852 120.533 8.97852C122.526 8.97852 124.29 9.35258 125.746 10.1007C127.203 10.8488 128.353 11.8962 129.196 13.2429C129.962 14.6643 130.346 16.2354 130.346 18.0309Z" fill="white"/>
<path d="M141.462 29.925C139.315 29.925 137.475 29.5509 135.865 28.8028C134.255 28.0547 133.029 27.0073 132.186 25.6606C131.342 24.314 130.882 22.7429 130.882 20.8726C130.882 18.6282 131.419 16.6083 132.492 14.8876C133.565 13.092 135.099 11.6706 137.015 10.698C138.932 9.65064 141.078 9.12695 143.531 9.12695C145.755 9.12695 147.594 9.57583 149.204 10.4736C150.814 11.3713 151.964 12.6432 152.807 14.2891L147.748 16.7579C146.828 14.9624 145.295 13.9898 143.148 13.9898C141.998 13.9898 140.925 14.2891 140.005 14.8127C139.085 15.4112 138.318 16.1594 137.782 17.1319C137.245 18.1045 137.015 19.3015 137.015 20.5734C137.015 21.92 137.475 23.0422 138.318 23.8651C139.162 24.6881 140.312 25.0621 141.845 25.0621C144.068 25.0621 145.755 24.1644 146.905 22.3689L151.351 25.0621C150.354 26.5584 148.974 27.7554 147.288 28.6532C145.448 29.5509 143.531 29.925 141.462 29.925Z" fill="white"/>
<path d="M157.177 1.7207H163.157L157.484 29.626H151.504L157.177 1.7207Z" fill="white"/>
<path d="M172.739 25.1375C173.889 25.1375 174.962 24.8383 175.882 24.3146C176.802 23.7161 177.492 22.968 178.029 21.9954C178.566 21.0228 178.796 19.8258 178.796 18.554C178.796 17.2074 178.412 16.0852 177.569 15.2622C176.726 14.4393 175.576 14.0652 174.119 14.0652C172.969 14.0652 171.896 14.3645 170.976 14.8882C170.056 15.4867 169.366 16.2348 168.83 17.2074C168.293 18.1799 168.063 19.3769 168.063 20.6488C168.063 21.9954 168.446 23.1176 169.29 23.9405C170.056 24.6887 171.206 25.1375 172.739 25.1375ZM186.615 9.4268L182.475 29.6263H176.802L177.186 27.6064C175.499 29.1026 173.353 29.9256 170.823 29.9256C169.213 29.9256 167.756 29.5515 166.376 28.8034C164.997 28.0553 163.923 27.0079 163.157 25.6612C162.313 24.3146 161.93 22.6687 161.93 20.7984C161.93 18.554 162.467 16.534 163.463 14.7385C164.46 12.943 165.84 11.5216 167.603 10.549C169.366 9.50161 171.283 9.05273 173.353 9.05273C176.496 9.05273 178.796 10.1001 180.099 12.1201L180.635 9.35199H186.615V9.4268Z" fill="white"/>
<path d="M201.411 9.12695C203.71 9.12695 205.55 9.72546 206.93 10.9225C208.31 12.1195 209 13.8402 209 16.0098C209 16.8327 208.923 17.6556 208.77 18.4786L206.47 29.7005H200.491L202.714 18.8527C202.79 18.4038 202.867 17.9549 202.867 17.4312C202.867 16.3838 202.56 15.5609 201.947 15.0372C201.334 14.5135 200.491 14.2142 199.264 14.2142C197.731 14.2142 196.428 14.6631 195.431 15.4861C194.434 16.3838 193.744 17.6556 193.361 19.3763L191.291 29.6257H185.312L189.451 9.35139H195.124L194.664 11.521C196.504 9.9499 198.727 9.12695 201.411 9.12695Z" fill="white"/>
</svg>
